<?xml version="1.0" encoding="utf-8"?>
<!-- Generator: Adobe Illustrator 26.5.0, SVG Export Plug-In . SVG Version: 6.00 Build 0)  -->
<svg version="1.1" id="typ1" xmlns="http://www.w3.org/2000/svg" xmlns:xlink="http://www.w3.org/1999/xlink" x="0px" y="0px"
	 viewBox="0 0 16 16" style="enable-background:new 0 0 16 16;" xml:space="preserve">
<g>
	<g id="LWPOLYLINE">
		<polygon points="2.4,12.3 4.6,12.3 6.9,7.9 5.7,5.6 		"/>
	</g>
	<g id="LWPOLYLINE-2">
		<polygon points="6.9,7.9 8,10.1 9.1,7.9 11.4,12.3 13.6,12.3 9.1,3.3 		"/>
	</g>
	<g id="LWPOLYLINE-3">
		<path d="M7.1,12.7c-0.2,0-0.3-0.1-0.3-0.3c0-0.2,0.1-0.3,0.3-0.3h1.8c0.2,0,0.3,0.1,0.3,0.3c0,0.2-0.1,0.3-0.3,0.3H7.1z"/>
	</g>
	<g id="LWPOLYLINE-4">
		<circle cx="8" cy="10.6" r="0.3"/>
	</g>
	<g id="LWPOLYLINE-5">
		<circle cx="8" cy="11.5" r="0.5"/>
	</g>
	<g id="LWPOLYLINE-6">
		<path d="M9.3,12.5H16v-0.2H9.3C9.3,12.4,9.3,12.4,9.3,12.5z"/>
	</g>
	<g id="LWPOLYLINE-7">
		<path d="M6.7,12.5H0v-0.2h6.7C6.7,12.4,6.7,12.4,6.7,12.5z"/>
	</g>
</g>
</svg>
