<?xml version="1.0" encoding="UTF-8"?>
<svg id="typ1" xmlns="http://www.w3.org/2000/svg" viewBox="0 0 187.52 187.52">
  <defs>
    <style>
      .cls-1 {
        fill: #fff;
      }

      .cls-2 {
        fill: #364f53;
      }

      .cls-3 {
        fill: #bfc8d1;
      }
    </style>
  </defs>
  <circle class="cls-3" cx="93.76" cy="93.76" r="90"/>
  <g>
    <polygon class="cls-1" points="80.54 16.25 25.08 129.45 136 129.45 80.54 16.25"/>
    <polygon class="cls-2" points="107.85 16.25 52.39 129.45 163.32 129.45 107.85 16.25"/>
    <g>
      <g id="LWPOLYLINE">
        <path class="cls-1" d="M91.86,129.45c-2.83,0-5.12-2.29-5.12-5.12s2.29-5.12,5.12-5.12h32c2.83,0,5.12,2.29,5.12,5.12s-2.29,5.12-5.12,5.12h-32Z"/>
      </g>
      <g id="LWPOLYLINE-2" data-name="LWPOLYLINE">
        <circle class="cls-1" cx="107.85" cy="91.37" r="4.8"/>
      </g>
      <g id="LWPOLYLINE-3" data-name="LWPOLYLINE">
        <circle class="cls-1" cx="107.85" cy="107.69" r="9.6"/>
      </g>
    </g>
    <g>
      <path class="cls-2" d="M31.89,150.18c-1.04,0-2.02-.18-2.94-.54-.93-.36-1.75-.88-2.46-1.57-.71-.68-1.27-1.51-1.68-2.48-.41-.97-.61-2.05-.61-3.26s.2-2.3,.61-3.25c.41-.95,.97-1.77,1.68-2.45,.71-.68,1.53-1.19,2.46-1.54,.93-.35,1.91-.53,2.94-.53s2.02,.18,2.95,.53c.93,.35,1.75,.87,2.47,1.54,.71,.68,1.27,1.49,1.68,2.45s.61,2.04,.61,3.25-.2,2.29-.61,3.26-.97,1.79-1.68,2.48c-.71,.68-1.53,1.21-2.47,1.57-.93,.36-1.92,.54-2.95,.54Zm0-1.31c.87,0,1.69-.16,2.45-.47,.76-.31,1.43-.76,2-1.34s1.02-1.27,1.34-2.06c.32-.79,.48-1.68,.48-2.66s-.16-1.87-.48-2.66c-.32-.79-.76-1.47-1.34-2.04-.57-.57-1.24-1-2-1.31s-1.58-.46-2.45-.46-1.68,.15-2.44,.46c-.75,.3-1.42,.74-1.99,1.31-.57,.57-1.02,1.25-1.34,2.04-.32,.79-.48,1.68-.48,2.66s.16,1.87,.48,2.66c.32,.79,.76,1.48,1.34,2.06s1.24,1.03,1.99,1.34c.75,.31,1.56,.47,2.44,.47Zm.27-1.89c-.86,0-1.62-.19-2.3-.56-.68-.37-1.21-.9-1.6-1.6-.39-.69-.58-1.51-.58-2.47s.21-1.72,.63-2.39,.97-1.19,1.66-1.57c.68-.37,1.42-.56,2.21-.56,.7,0,1.3,.13,1.78,.4,.48,.27,.91,.59,1.29,.96l-1.16,1.33c-.28-.28-.55-.49-.81-.63s-.57-.22-.91-.22c-.77,0-1.38,.26-1.8,.77s-.64,1.15-.64,1.91c0,.86,.21,1.54,.62,2.04,.41,.5,.98,.76,1.7,.76,.43,0,.79-.08,1.1-.24,.3-.16,.61-.36,.93-.61l1,1.43c-.44,.36-.91,.66-1.41,.89-.5,.24-1.06,.35-1.7,.35Z"/>
      <path class="cls-2" d="M46.3,149.97v-1.76c1.33-1.27,2.49-2.42,3.48-3.45,1-1.03,1.77-1.97,2.32-2.82,.55-.85,.83-1.64,.83-2.37,0-.51-.09-.95-.27-1.31-.18-.36-.44-.64-.78-.83-.34-.19-.76-.29-1.25-.29-.55,0-1.06,.16-1.52,.48-.46,.32-.89,.68-1.27,1.1l-1.7-1.66c.72-.76,1.45-1.34,2.21-1.73,.75-.39,1.65-.59,2.68-.59,.97,0,1.81,.19,2.54,.58s1.29,.93,1.69,1.63c.4,.7,.6,1.52,.6,2.46,0,.86-.24,1.73-.72,2.63-.48,.9-1.11,1.81-1.89,2.73s-1.63,1.86-2.56,2.83c.39-.06,.81-.1,1.29-.13,.47-.03,.88-.05,1.24-.05h3.36v2.57h-10.28Z"/>
      <path class="cls-2" d="M63.75,150.26c-1.05,0-1.97-.3-2.75-.9-.78-.6-1.39-1.48-1.81-2.64-.43-1.16-.64-2.58-.64-4.27s.21-3.12,.64-4.26,1.03-2,1.81-2.58c.78-.58,1.7-.87,2.75-.87s1.97,.29,2.75,.87c.78,.58,1.39,1.44,1.81,2.58s.64,2.56,.64,4.26-.21,3.11-.64,4.27c-.43,1.16-1.03,2.04-1.81,2.64-.78,.6-1.7,.9-2.75,.9Zm0-2.38c.46,0,.86-.16,1.2-.49,.34-.33,.61-.88,.81-1.68,.19-.79,.29-1.88,.29-3.27s-.1-2.48-.29-3.25c-.19-.77-.46-1.31-.81-1.62-.35-.3-.75-.46-1.2-.46-.43,0-.82,.15-1.17,.46s-.63,.84-.84,1.62-.31,1.86-.31,3.25,.1,2.47,.31,3.27c.21,.79,.49,1.35,.84,1.68,.35,.32,.74,.49,1.17,.49Z"/>
      <path class="cls-2" d="M70.76,149.97v-1.76c1.33-1.27,2.49-2.42,3.48-3.45,1-1.03,1.77-1.97,2.32-2.82,.55-.85,.83-1.64,.83-2.37,0-.51-.09-.95-.27-1.31-.18-.36-.44-.64-.78-.83-.34-.19-.76-.29-1.25-.29-.55,0-1.06,.16-1.52,.48-.46,.32-.89,.68-1.27,1.1l-1.7-1.66c.72-.76,1.45-1.34,2.21-1.73,.75-.39,1.65-.59,2.68-.59,.97,0,1.81,.19,2.54,.58s1.29,.93,1.69,1.63c.4,.7,.6,1.52,.6,2.46,0,.86-.24,1.73-.72,2.63-.48,.9-1.11,1.81-1.89,2.73s-1.63,1.86-2.56,2.83c.39-.06,.81-.1,1.29-.13,.47-.03,.88-.05,1.24-.05h3.36v2.57h-10.28Z"/>
      <path class="cls-2" d="M87.84,150.26c-.82,0-1.54-.1-2.18-.29s-1.2-.45-1.7-.77c-.5-.32-.94-.66-1.33-1.04l1.41-1.95c.29,.29,.6,.55,.94,.79,.34,.24,.71,.42,1.12,.56,.41,.14,.85,.21,1.32,.21,.52,0,.99-.1,1.4-.31,.41-.21,.73-.5,.96-.89s.35-.86,.35-1.41c0-.83-.24-1.47-.72-1.92-.48-.45-1.1-.67-1.88-.67-.44,0-.82,.06-1.14,.19-.32,.12-.7,.33-1.16,.62l-1.39-.91,.41-7.44h8.21v2.55h-5.58l-.29,3.25c.3-.14,.6-.24,.89-.31,.29-.07,.61-.1,.95-.1,.86,0,1.64,.16,2.36,.5,.72,.33,1.29,.84,1.72,1.53s.64,1.57,.64,2.63-.25,2.02-.76,2.8c-.51,.77-1.16,1.36-1.97,1.77-.81,.41-1.68,.61-2.62,.61Z"/>
      <path class="cls-2" d="M100.93,149.97v-15.36h3.4l2.61,7.21c.17,.46,.32,.94,.48,1.44,.15,.5,.3,1,.46,1.48h.1c.17-.48,.32-.98,.48-1.48,.15-.51,.3-.99,.43-1.44l2.57-7.21h3.4v15.36h-2.8v-6.41c0-.5,.02-1.04,.06-1.64s.09-1.19,.16-1.79,.12-1.14,.18-1.61h-.08l-1.27,3.61-2.36,6.45h-1.76l-2.38-6.45-1.22-3.61h-.08c.06,.47,.11,1.01,.17,1.61,.05,.6,.11,1.2,.16,1.79,.05,.59,.07,1.14,.07,1.64v6.41h-2.76Z"/>
      <path class="cls-2" d="M117.74,145.14v-2.2h5.66v2.2h-5.66Z"/>
      <path class="cls-2" d="M124.83,149.97v-1.84l7.15-10.95h-6.49v-2.57h10.26v1.84l-7.15,10.95h7.21v2.57h-10.99Z"/>
      <path class="cls-2" d="M142.7,150.26c-1.08,0-2.05-.24-2.92-.73-.87-.48-1.57-1.18-2.08-2.09-.52-.91-.78-2-.78-3.28,0-.94,.15-1.78,.45-2.53,.3-.75,.7-1.39,1.22-1.92,.52-.53,1.1-.94,1.74-1.22,.64-.28,1.31-.43,2-.43,1.06,0,1.96,.24,2.67,.72,.72,.48,1.26,1.13,1.63,1.97,.37,.84,.55,1.79,.55,2.87,0,.28-.01,.54-.04,.8-.03,.26-.06,.46-.1,.61h-7.15c.08,.62,.27,1.15,.56,1.58,.29,.43,.66,.75,1.12,.96,.46,.21,.97,.32,1.56,.32,.47,0,.91-.06,1.33-.2,.41-.13,.84-.33,1.26-.59l1.04,1.87c-.57,.39-1.2,.7-1.91,.93-.7,.23-1.42,.35-2.14,.35Zm-2.88-7.28h4.75c0-.77-.18-1.39-.53-1.86s-.91-.69-1.67-.69c-.4,0-.78,.09-1.14,.28s-.66,.47-.91,.85c-.25,.38-.41,.85-.5,1.42Z"/>
      <path class="cls-2" d="M149.69,149.97v-11.61h2.49l.23,1.53h.06c.51-.5,1.07-.93,1.68-1.29,.61-.36,1.31-.54,2.09-.54,1.26,0,2.17,.41,2.74,1.23,.57,.82,.85,1.97,.85,3.43v7.24h-3.05v-6.86c0-.9-.13-1.53-.38-1.89-.26-.36-.67-.54-1.25-.54-.47,0-.88,.11-1.23,.33s-.74,.55-1.17,.97v7.98h-3.05Z"/>
    </g>
  </g>
</svg>